<mxfile host="65bd71144e">
    <diagram id="NOAmcCc6fkDQvaxrV_qR" name="ページ1">
        <mxGraphModel dx="1336" dy="751" grid="1" gridSize="10" guides="1" tooltips="1" connect="1" arrows="1" fold="1" page="1" pageScale="1" pageWidth="827" pageHeight="1169" math="0" shadow="0">
            <root>
                <mxCell id="0"/>
                <mxCell id="1" parent="0"/>
                <mxCell id="20" value="Pool" style="swimlane;childLayout=stackLayout;resizeParent=1;resizeParentMax=0;startSize=20;horizontal=0;horizontalStack=1;" parent="1" vertex="1">
                    <mxGeometry x="40" y="40" width="820" height="2200" as="geometry"/>
                </mxCell>
                <mxCell id="30" style="edgeStyle=none;html=1;" parent="20" source="28" target="31" edge="1">
                    <mxGeometry relative="1" as="geometry">
                        <mxPoint x="190" y="1170" as="targetPoint"/>
                    </mxGeometry>
                </mxCell>
                <mxCell id="47" style="edgeStyle=none;html=1;exitX=1;exitY=0.5;exitDx=0;exitDy=0;entryX=0;entryY=0.75;entryDx=0;entryDy=0;" parent="20" source="45" target="42" edge="1">
                    <mxGeometry relative="1" as="geometry">
                        <Array as="points">
                            <mxPoint x="390" y="1530"/>
                        </Array>
                    </mxGeometry>
                </mxCell>
                <mxCell id="70" style="edgeStyle=none;html=1;exitX=1;exitY=0.5;exitDx=0;exitDy=0;entryX=0;entryY=0.5;entryDx=0;entryDy=0;" parent="20" source="45" target="68" edge="1">
                    <mxGeometry relative="1" as="geometry">
                        <Array as="points">
                            <mxPoint x="280" y="2050"/>
                        </Array>
                    </mxGeometry>
                </mxCell>
                <mxCell id="21" value="開発部" style="swimlane;startSize=20;" parent="20" vertex="1">
                    <mxGeometry x="20" width="200" height="2200" as="geometry"/>
                </mxCell>
                <mxCell id="27" style="edgeStyle=none;html=1;entryX=0.5;entryY=0;entryDx=0;entryDy=0;" parent="21" source="2" target="26" edge="1">
                    <mxGeometry relative="1" as="geometry"/>
                </mxCell>
                <mxCell id="2" value="ID作成ニーズ発生" style="rounded=1;whiteSpace=wrap;html=1;" parent="21" vertex="1">
                    <mxGeometry x="40" y="720" width="120" height="60" as="geometry"/>
                </mxCell>
                <mxCell id="29" value="" style="edgeStyle=none;html=1;exitX=0.5;exitY=1;exitDx=0;exitDy=0;" parent="21" source="124" target="28" edge="1">
                    <mxGeometry relative="1" as="geometry">
                        <mxPoint x="80" y="1030" as="sourcePoint"/>
                    </mxGeometry>
                </mxCell>
                <mxCell id="125" value="" style="edgeStyle=none;html=1;" edge="1" parent="21" source="26" target="124">
                    <mxGeometry relative="1" as="geometry"/>
                </mxCell>
                <mxCell id="26" value="テストコード取得" style="rounded=1;whiteSpace=wrap;html=1;" parent="21" vertex="1">
                    <mxGeometry x="40" y="840" width="120" height="60" as="geometry"/>
                </mxCell>
                <mxCell id="46" style="edgeStyle=none;html=1;entryX=0.5;entryY=0;entryDx=0;entryDy=0;dashed=1;dashPattern=8 8;" parent="21" source="28" target="45" edge="1">
                    <mxGeometry relative="1" as="geometry"/>
                </mxCell>
                <mxCell id="28" value="ID作成依頼&lt;br&gt;=テストコード提出" style="whiteSpace=wrap;html=1;rounded=1;" parent="21" vertex="1">
                    <mxGeometry x="40" y="1080" width="120" height="60" as="geometry"/>
                </mxCell>
                <mxCell id="45" value="結果確認" style="rounded=1;whiteSpace=wrap;html=1;" parent="21" vertex="1">
                    <mxGeometry x="40" y="1680" width="120" height="60" as="geometry"/>
                </mxCell>
                <mxCell id="92" value="" style="edgeStyle=none;html=1;" edge="1" parent="21" source="90" target="91">
                    <mxGeometry relative="1" as="geometry"/>
                </mxCell>
                <mxCell id="90" value="開発ニーズ発生" style="rounded=1;whiteSpace=wrap;html=1;" vertex="1" parent="21">
                    <mxGeometry x="40" y="40" width="120" height="60" as="geometry"/>
                </mxCell>
                <mxCell id="91" value="サーバ提供依頼" style="whiteSpace=wrap;html=1;rounded=1;" vertex="1" parent="21">
                    <mxGeometry x="40" y="140" width="120" height="60" as="geometry"/>
                </mxCell>
                <mxCell id="120" value="サーバ受領" style="whiteSpace=wrap;html=1;rounded=1;" vertex="1" parent="21">
                    <mxGeometry x="40" y="560" width="120" height="60" as="geometry"/>
                </mxCell>
                <mxCell id="124" value="テストコード修正" style="rounded=1;whiteSpace=wrap;html=1;" vertex="1" parent="21">
                    <mxGeometry x="40" y="960" width="120" height="60" as="geometry"/>
                </mxCell>
                <mxCell id="23" value="infra" style="swimlane;startSize=20;" parent="20" vertex="1">
                    <mxGeometry x="220" width="200" height="2200" as="geometry"/>
                </mxCell>
                <mxCell id="74" value="Merge Request" style="text;html=1;align=center;verticalAlign=middle;resizable=0;points=[];autosize=1;strokeColor=none;fillColor=none;" parent="23" vertex="1">
                    <mxGeometry x="50" y="1080" width="110" height="30" as="geometry"/>
                </mxCell>
                <mxCell id="99" value="" style="edgeStyle=none;html=1;exitX=0.5;exitY=1;exitDx=0;exitDy=0;entryX=0.5;entryY=0;entryDx=0;entryDy=0;" edge="1" parent="23" source="111" target="112">
                    <mxGeometry relative="1" as="geometry">
                        <mxPoint x="90" y="260" as="sourcePoint"/>
                        <mxPoint x="110" y="360" as="targetPoint"/>
                    </mxGeometry>
                </mxCell>
                <mxCell id="111" value="プロビジョニング" style="shape=process;whiteSpace=wrap;html=1;backgroundOutline=1;" vertex="1" parent="23">
                    <mxGeometry x="34" y="140" width="120" height="60" as="geometry"/>
                </mxCell>
                <mxCell id="117" value="" style="edgeStyle=none;html=1;" edge="1" parent="23" source="112" target="116">
                    <mxGeometry relative="1" as="geometry"/>
                </mxCell>
                <mxCell id="112" value="IDスキャン実行指示" style="shape=process;whiteSpace=wrap;html=1;backgroundOutline=1;" vertex="1" parent="23">
                    <mxGeometry x="34" y="360" width="120" height="60" as="geometry"/>
                </mxCell>
                <mxCell id="119" value="" style="edgeStyle=none;html=1;" edge="1" parent="23" source="116" target="118">
                    <mxGeometry relative="1" as="geometry"/>
                </mxCell>
                <mxCell id="116" value="プロビジョニング完了" style="shape=process;whiteSpace=wrap;html=1;backgroundOutline=1;" vertex="1" parent="23">
                    <mxGeometry x="34" y="460" width="120" height="60" as="geometry"/>
                </mxCell>
                <mxCell id="118" value="完了連絡" style="rounded=1;whiteSpace=wrap;html=1;" vertex="1" parent="23">
                    <mxGeometry x="34" y="560" width="120" height="60" as="geometry"/>
                </mxCell>
                <mxCell id="194" value="git clone" style="text;html=1;align=center;verticalAlign=middle;resizable=0;points=[];autosize=1;strokeColor=none;fillColor=none;" vertex="1" parent="23">
                    <mxGeometry x="70" y="840" width="70" height="30" as="geometry"/>
                </mxCell>
                <mxCell id="24" value="ansible" style="swimlane;startSize=20;" parent="20" vertex="1">
                    <mxGeometry x="420" width="200" height="2200" as="geometry"/>
                </mxCell>
                <mxCell id="52" value="テストコード&lt;br&gt;取得" style="shape=process;whiteSpace=wrap;html=1;backgroundOutline=1;" parent="24" vertex="1">
                    <mxGeometry x="40" y="1660" width="120" height="60" as="geometry"/>
                </mxCell>
                <mxCell id="62" style="edgeStyle=none;html=1;exitX=0.5;exitY=1;exitDx=0;exitDy=0;entryX=0.5;entryY=0;entryDx=0;entryDy=0;" parent="24" source="60" target="55" edge="1">
                    <mxGeometry relative="1" as="geometry"/>
                </mxCell>
                <mxCell id="60" value="playbook生成" style="shape=process;whiteSpace=wrap;html=1;backgroundOutline=1;" parent="24" vertex="1">
                    <mxGeometry x="40" y="1790" width="120" height="60" as="geometry"/>
                </mxCell>
                <mxCell id="55" value="ID作成・設定&lt;br&gt;実行" style="shape=process;whiteSpace=wrap;html=1;backgroundOutline=1;" parent="24" vertex="1">
                    <mxGeometry x="40" y="1920" width="120" height="60" as="geometry"/>
                </mxCell>
                <mxCell id="58" style="edgeStyle=none;html=1;exitX=0.5;exitY=1;exitDx=0;exitDy=0;" parent="24" source="52" target="60" edge="1">
                    <mxGeometry relative="1" as="geometry">
                        <mxPoint x="-100" y="1800" as="targetPoint"/>
                    </mxGeometry>
                </mxCell>
                <mxCell id="96" value="サーバ" style="shape=cube;whiteSpace=wrap;html=1;boundedLbl=1;backgroundOutline=1;darkOpacity=0.05;darkOpacity2=0.1;" vertex="1" parent="24">
                    <mxGeometry x="-46" y="220" width="120" height="80" as="geometry"/>
                </mxCell>
                <mxCell id="103" style="edgeStyle=none;html=1;exitX=0.5;exitY=0;exitDx=0;exitDy=0;entryX=0.84;entryY=1.01;entryDx=0;entryDy=0;entryPerimeter=0;" edge="1" parent="24" source="113" target="96">
                    <mxGeometry relative="1" as="geometry">
                        <mxPoint x="110" y="360" as="sourcePoint"/>
                    </mxGeometry>
                </mxCell>
                <mxCell id="105" value="" style="edgeStyle=none;html=1;exitX=0.5;exitY=1;exitDx=0;exitDy=0;entryX=0.5;entryY=0;entryDx=0;entryDy=0;" edge="1" parent="24" source="113" target="114">
                    <mxGeometry relative="1" as="geometry">
                        <mxPoint x="110" y="420" as="sourcePoint"/>
                        <mxPoint x="105.71428571428578" y="460" as="targetPoint"/>
                    </mxGeometry>
                </mxCell>
                <mxCell id="109" value="" style="edgeStyle=none;html=1;exitX=0.5;exitY=1;exitDx=0;exitDy=0;entryX=0.5;entryY=0;entryDx=0;entryDy=0;" edge="1" parent="24" source="114" target="115">
                    <mxGeometry relative="1" as="geometry">
                        <mxPoint x="110" y="520" as="sourcePoint"/>
                        <mxPoint x="110" y="560" as="targetPoint"/>
                    </mxGeometry>
                </mxCell>
                <mxCell id="113" value="IDスキャン実行" style="shape=process;whiteSpace=wrap;html=1;backgroundOutline=1;" vertex="1" parent="24">
                    <mxGeometry x="40" y="360" width="120" height="60" as="geometry"/>
                </mxCell>
                <mxCell id="114" value="テストコード生成" style="shape=process;whiteSpace=wrap;html=1;backgroundOutline=1;" vertex="1" parent="24">
                    <mxGeometry x="40" y="460" width="120" height="60" as="geometry"/>
                </mxCell>
                <mxCell id="115" value="テストコード保管" style="shape=process;whiteSpace=wrap;html=1;backgroundOutline=1;" vertex="1" parent="24">
                    <mxGeometry x="40" y="560" width="120" height="60" as="geometry"/>
                </mxCell>
                <mxCell id="95" value="" style="edgeStyle=none;html=1;exitX=1;exitY=0.5;exitDx=0;exitDy=0;entryX=0;entryY=0.5;entryDx=0;entryDy=0;" edge="1" parent="20" source="91" target="111">
                    <mxGeometry relative="1" as="geometry">
                        <mxPoint x="230" y="230" as="targetPoint"/>
                    </mxGeometry>
                </mxCell>
                <mxCell id="97" style="edgeStyle=none;html=1;entryX=0;entryY=0;entryDx=50;entryDy=0;entryPerimeter=0;exitX=1;exitY=0.5;exitDx=0;exitDy=0;" edge="1" parent="20" source="111" target="96">
                    <mxGeometry relative="1" as="geometry">
                        <mxPoint x="390" y="170" as="sourcePoint"/>
                    </mxGeometry>
                </mxCell>
                <mxCell id="102" value="" style="edgeStyle=none;html=1;exitX=1;exitY=0.5;exitDx=0;exitDy=0;entryX=0;entryY=0.5;entryDx=0;entryDy=0;" edge="1" parent="20" source="112" target="113">
                    <mxGeometry relative="1" as="geometry">
                        <mxPoint x="390" y="390" as="sourcePoint"/>
                        <mxPoint x="460" y="360" as="targetPoint"/>
                    </mxGeometry>
                </mxCell>
                <mxCell id="75" value="GitLab" style="swimlane;startSize=20;" vertex="1" parent="20">
                    <mxGeometry x="620" width="200" height="2200" as="geometry"/>
                </mxCell>
                <mxCell id="77" value="" style="shape=datastore;whiteSpace=wrap;html=1;" vertex="1" parent="75">
                    <mxGeometry x="70" y="560" width="60" height="60" as="geometry"/>
                </mxCell>
                <mxCell id="122" value="" style="shape=datastore;whiteSpace=wrap;html=1;" vertex="1" parent="75">
                    <mxGeometry x="70" y="840" width="60" height="60" as="geometry"/>
                </mxCell>
                <mxCell id="31" value="" style="shape=datastore;whiteSpace=wrap;html=1;" parent="75" vertex="1">
                    <mxGeometry x="70" y="1080" width="60" height="60" as="geometry"/>
                </mxCell>
                <mxCell id="35" value="テストコード&lt;br&gt;妥当性チェック" style="shape=process;whiteSpace=wrap;html=1;backgroundOutline=1;" parent="75" vertex="1">
                    <mxGeometry x="40" y="1200" width="120" height="60" as="geometry"/>
                </mxCell>
                <mxCell id="34" value="" style="edgeStyle=none;html=1;entryX=0.5;entryY=0;entryDx=0;entryDy=0;" parent="75" source="31" target="35" edge="1">
                    <mxGeometry relative="1" as="geometry">
                        <mxPoint x="-390" y="1230" as="targetPoint"/>
                    </mxGeometry>
                </mxCell>
                <mxCell id="195" style="edgeStyle=none;html=1;exitX=1;exitY=0.5;exitDx=0;exitDy=0;entryX=0.5;entryY=0;entryDx=0;entryDy=0;" edge="1" parent="75" source="38" target="50">
                    <mxGeometry relative="1" as="geometry">
                        <Array as="points">
                            <mxPoint x="180" y="1340"/>
                            <mxPoint x="180" y="1520"/>
                            <mxPoint x="100" y="1520"/>
                        </Array>
                    </mxGeometry>
                </mxCell>
                <mxCell id="38" value="" style="rhombus;whiteSpace=wrap;html=1;" parent="75" vertex="1">
                    <mxGeometry x="80" y="1320" width="40" height="40" as="geometry"/>
                </mxCell>
                <mxCell id="39" style="edgeStyle=none;html=1;entryX=0.5;entryY=0;entryDx=0;entryDy=0;" parent="75" source="35" target="38" edge="1">
                    <mxGeometry relative="1" as="geometry"/>
                </mxCell>
                <mxCell id="42" value="エラー終了" style="shape=process;whiteSpace=wrap;html=1;backgroundOutline=1;" parent="75" vertex="1">
                    <mxGeometry x="40" y="1420" width="120" height="60" as="geometry"/>
                </mxCell>
                <mxCell id="43" style="edgeStyle=none;html=1;exitX=0.5;exitY=1;exitDx=0;exitDy=0;entryX=0.5;entryY=0;entryDx=0;entryDy=0;" parent="75" source="38" target="42" edge="1">
                    <mxGeometry relative="1" as="geometry"/>
                </mxCell>
                <mxCell id="50" value="ID作成指示" style="shape=process;whiteSpace=wrap;html=1;backgroundOutline=1;" parent="75" vertex="1">
                    <mxGeometry x="40" y="1550" width="120" height="60" as="geometry"/>
                </mxCell>
                <mxCell id="48" value="fail" style="text;html=1;align=center;verticalAlign=middle;resizable=0;points=[];autosize=1;strokeColor=none;fillColor=none;" parent="75" vertex="1">
                    <mxGeometry x="40" y="1360" width="40" height="30" as="geometry"/>
                </mxCell>
                <mxCell id="51" value="pass" style="text;html=1;align=center;verticalAlign=middle;resizable=0;points=[];autosize=1;strokeColor=none;fillColor=none;" parent="75" vertex="1">
                    <mxGeometry x="120" y="1310" width="50" height="30" as="geometry"/>
                </mxCell>
                <mxCell id="71" value="サーバ" style="shape=cube;whiteSpace=wrap;html=1;boundedLbl=1;backgroundOutline=1;darkOpacity=0.05;darkOpacity2=0.1;" parent="75" vertex="1">
                    <mxGeometry x="-20" y="1990" width="120" height="80" as="geometry"/>
                </mxCell>
                <mxCell id="197" value="" style="shape=datastore;whiteSpace=wrap;html=1;" vertex="1" parent="75">
                    <mxGeometry x="70" y="1660" width="60" height="60" as="geometry"/>
                </mxCell>
                <mxCell id="68" value="正常終了" style="shape=process;whiteSpace=wrap;html=1;backgroundOutline=1;" parent="75" vertex="1">
                    <mxGeometry x="40" y="2120" width="120" height="60" as="geometry"/>
                </mxCell>
                <mxCell id="110" style="edgeStyle=none;html=1;entryX=0;entryY=0.5;entryDx=0;entryDy=0;exitX=1;exitY=0.5;exitDx=0;exitDy=0;" edge="1" parent="20" source="115" target="77">
                    <mxGeometry relative="1" as="geometry">
                        <mxPoint x="590" y="590" as="sourcePoint"/>
                    </mxGeometry>
                </mxCell>
                <mxCell id="121" value="" style="edgeStyle=none;html=1;" edge="1" parent="20" source="118" target="120">
                    <mxGeometry relative="1" as="geometry"/>
                </mxCell>
                <mxCell id="123" style="edgeStyle=none;html=1;entryX=0;entryY=0.5;entryDx=0;entryDy=0;" edge="1" parent="20" source="26" target="122">
                    <mxGeometry relative="1" as="geometry"/>
                </mxCell>
                <mxCell id="72" style="edgeStyle=none;html=1;exitX=1;exitY=0.5;exitDx=0;exitDy=0;entryX=0.29;entryY=-0.01;entryDx=0;entryDy=0;entryPerimeter=0;" parent="20" source="55" target="71" edge="1">
                    <mxGeometry relative="1" as="geometry"/>
                </mxCell>
                <mxCell id="196" style="edgeStyle=none;html=1;exitX=0;exitY=0.5;exitDx=0;exitDy=0;entryX=0.5;entryY=0;entryDx=0;entryDy=0;" edge="1" parent="20" source="50" target="52">
                    <mxGeometry relative="1" as="geometry">
                        <Array as="points">
                            <mxPoint x="520" y="1580"/>
                        </Array>
                    </mxGeometry>
                </mxCell>
                <mxCell id="198" style="edgeStyle=none;html=1;exitX=1;exitY=0.5;exitDx=0;exitDy=0;entryX=0;entryY=0.5;entryDx=0;entryDy=0;" edge="1" parent="20" source="52" target="197">
                    <mxGeometry relative="1" as="geometry"/>
                </mxCell>
                <mxCell id="67" style="edgeStyle=none;html=1;exitX=0.5;exitY=1;exitDx=0;exitDy=0;entryX=0.5;entryY=0;entryDx=0;entryDy=0;" parent="20" source="55" target="68" edge="1">
                    <mxGeometry relative="1" as="geometry">
                        <mxPoint x="520" y="2040" as="targetPoint"/>
                        <Array as="points">
                            <mxPoint x="520" y="2090"/>
                            <mxPoint x="720" y="2090"/>
                        </Array>
                    </mxGeometry>
                </mxCell>
            </root>
        </mxGraphModel>
    </diagram>
</mxfile>